<?xml version="1.0" encoding="UTF-8"?>
<svg xmlns="http://www.w3.org/2000/svg" xmlns:xlink="http://www.w3.org/1999/xlink" viewBox="12.700 77.000 172.100 50.600">
<defs>
<g>
<g id="glyph-0-0">
<path d="M 10.671875 -0.234375 C 10.671875 -0.1875 10.65625 -0.140625 10.625 -0.125 C 10.609375 -0.078125 10.5625 -0.046875 10.5 -0.03125 C 10.4375 -0.015625 10.359375 0.015625 10.25 0.03125 C 10.15625 0.046875 10.015625 0.046875 9.859375 0.046875 C 9.703125 0.046875 9.5625 0.046875 9.453125 0.03125 C 9.375 0.015625 9.28125 -0.015625 9.21875 -0.03125 C 9.15625 -0.046875 9.109375 -0.078125 9.09375 -0.125 C 9.0625 -0.140625 9.046875 -0.1875 9.046875 -0.234375 L 9.046875 -7.109375 L 9.03125 -7.109375 L 6.625 -0.234375 C 6.59375 -0.1875 6.578125 -0.140625 6.53125 -0.109375 C 6.5 -0.0625 6.4375 -0.046875 6.375 -0.015625 C 6.3125 0.015625 6.234375 0.03125 6.125 0.03125 C 6.015625 0.046875 5.890625 0.046875 5.75 0.046875 C 5.609375 0.046875 5.46875 0.046875 5.359375 0.03125 C 5.28125 0.015625 5.1875 0 5.109375 -0.03125 C 5.046875 -0.046875 5 -0.078125 4.953125 -0.125 C 4.921875 -0.140625 4.890625 -0.203125 4.875 -0.234375 L 2.546875 -7.109375 L 2.53125 -7.109375 L 2.53125 -0.234375 C 2.53125 -0.1875 2.515625 -0.140625 2.484375 -0.125 C 2.484375 -0.078125 2.421875 -0.046875 2.359375 -0.03125 C 2.296875 -0.015625 2.21875 0.015625 2.109375 0.03125 C 2.015625 0.046875 1.875 0.046875 1.71875 0.046875 C 1.5625 0.046875 1.4375 0.046875 1.328125 0.03125 C 1.234375 0.015625 1.140625 -0.015625 1.09375 -0.03125 C 1.015625 -0.046875 0.984375 -0.078125 0.953125 -0.125 C 0.921875 -0.140625 0.921875 -0.1875 0.921875 -0.234375 L 0.921875 -7.765625 C 0.921875 -7.96875 0.96875 -8.15625 1.09375 -8.265625 C 1.203125 -8.390625 1.359375 -8.4375 1.5625 -8.4375 L 2.671875 -8.4375 C 2.875 -8.4375 3.046875 -8.4375 3.1875 -8.390625 C 3.328125 -8.359375 3.4375 -8.3125 3.546875 -8.234375 C 3.65625 -8.15625 3.75 -8.0625 3.8125 -7.9375 C 3.875 -7.796875 3.953125 -7.65625 3.984375 -7.46875 L 5.796875 -2.4375 L 5.828125 -2.4375 L 7.703125 -7.453125 C 7.75 -7.640625 7.796875 -7.796875 7.875 -7.921875 C 7.953125 -8.046875 8.015625 -8.15625 8.109375 -8.234375 C 8.203125 -8.3125 8.3125 -8.359375 8.421875 -8.390625 C 8.546875 -8.4375 8.6875 -8.4375 8.84375 -8.4375 L 9.984375 -8.4375 C 10.109375 -8.4375 10.21875 -8.4375 10.296875 -8.40625 C 10.375 -8.359375 10.453125 -8.328125 10.5 -8.265625 C 10.5625 -8.203125 10.59375 -8.140625 10.625 -8.0625 C 10.65625 -7.96875 10.671875 -7.875 10.671875 -7.765625 Z M 10.671875 -0.234375 "/>
</g>
<g id="glyph-0-1">
<path d="M 7.78125 -0.640625 C 7.8125 -0.484375 7.859375 -0.359375 7.875 -0.265625 C 7.890625 -0.171875 7.875 -0.109375 7.8125 -0.0625 C 7.765625 -0.015625 7.6875 0.015625 7.5625 0.03125 C 7.453125 0.046875 7.28125 0.046875 7.0625 0.046875 C 6.84375 0.046875 6.671875 0.046875 6.5625 0.03125 C 6.421875 0.03125 6.328125 0.015625 6.265625 -0.015625 C 6.203125 -0.03125 6.15625 -0.046875 6.140625 -0.09375 C 6.109375 -0.125 6.078125 -0.171875 6.0625 -0.234375 L 5.53125 -1.921875 L 2.359375 -1.921875 L 1.84375 -0.28125 C 1.8125 -0.21875 1.796875 -0.15625 1.765625 -0.125 C 1.734375 -0.078125 1.703125 -0.046875 1.625 -0.03125 C 1.578125 0 1.484375 0.015625 1.359375 0.03125 C 1.265625 0.046875 1.09375 0.046875 0.921875 0.046875 C 0.71875 0.046875 0.5625 0.046875 0.453125 0.03125 C 0.34375 0.015625 0.265625 -0.03125 0.21875 -0.078125 C 0.171875 -0.125 0.15625 -0.203125 0.171875 -0.296875 C 0.1875 -0.375 0.21875 -0.5 0.265625 -0.65625 L 2.84375 -8.15625 C 2.875 -8.21875 2.90625 -8.28125 2.9375 -8.328125 C 2.96875 -8.375 3.03125 -8.40625 3.09375 -8.4375 C 3.1875 -8.453125 3.28125 -8.46875 3.421875 -8.46875 C 3.546875 -8.484375 3.71875 -8.484375 3.953125 -8.484375 C 4.203125 -8.484375 4.40625 -8.484375 4.5625 -8.46875 C 4.703125 -8.46875 4.828125 -8.453125 4.921875 -8.4375 C 5 -8.40625 5.046875 -8.359375 5.09375 -8.328125 C 5.125 -8.265625 5.15625 -8.203125 5.1875 -8.125 Z M 3.9375 -6.84375 L 3.921875 -6.84375 L 2.75 -3.25 L 5.09375 -3.25 Z M 3.9375 -6.84375 "/>
</g>
<g id="glyph-0-2">
<path d="M 6.484375 -7.734375 C 6.484375 -7.609375 6.484375 -7.515625 6.46875 -7.421875 C 6.453125 -7.328125 6.4375 -7.25 6.40625 -7.203125 C 6.40625 -7.140625 6.375 -7.109375 6.328125 -7.078125 C 6.3125 -7.046875 6.265625 -7.046875 6.234375 -7.046875 L 4.140625 -7.046875 L 4.140625 -0.234375 C 4.140625 -0.1875 4.125 -0.140625 4.09375 -0.125 C 4.0625 -0.078125 4.015625 -0.046875 3.953125 -0.03125 C 3.890625 -0.015625 3.796875 0.015625 3.703125 0.03125 C 3.578125 0.046875 3.4375 0.046875 3.28125 0.046875 C 3.109375 0.046875 2.984375 0.046875 2.875 0.03125 C 2.75 0.015625 2.671875 -0.015625 2.609375 -0.03125 C 2.546875 -0.046875 2.484375 -0.078125 2.46875 -0.125 C 2.4375 -0.140625 2.421875 -0.1875 2.421875 -0.234375 L 2.421875 -7.046875 L 0.328125 -7.046875 C 0.296875 -7.046875 0.25 -7.046875 0.21875 -7.078125 C 0.203125 -7.109375 0.171875 -7.140625 0.140625 -7.203125 C 0.125 -7.25 0.109375 -7.328125 0.09375 -7.421875 C 0.078125 -7.515625 0.078125 -7.609375 0.078125 -7.734375 C 0.078125 -7.875 0.078125 -7.96875 0.09375 -8.0625 C 0.109375 -8.15625 0.125 -8.25 0.140625 -8.296875 C 0.171875 -8.34375 0.203125 -8.390625 0.21875 -8.40625 C 0.25 -8.4375 0.296875 -8.4375 0.328125 -8.4375 L 6.234375 -8.4375 C 6.265625 -8.4375 6.3125 -8.4375 6.328125 -8.40625 C 6.375 -8.390625 6.40625 -8.34375 6.40625 -8.296875 C 6.4375 -8.25 6.453125 -8.15625 6.46875 -8.0625 C 6.484375 -7.96875 6.484375 -7.875 6.484375 -7.734375 Z M 6.484375 -7.734375 "/>
</g>
<g id="glyph-0-3">
<path d="M 5.875 -0.6875 C 5.875 -0.546875 5.875 -0.4375 5.859375 -0.359375 C 5.84375 -0.265625 5.828125 -0.203125 5.796875 -0.140625 C 5.796875 -0.09375 5.765625 -0.0625 5.71875 -0.046875 C 5.703125 -0.015625 5.65625 0 5.625 0 L 1.421875 0 C 1.265625 0 1.15625 -0.046875 1.0625 -0.140625 C 0.96875 -0.21875 0.921875 -0.34375 0.921875 -0.546875 L 0.921875 -7.90625 C 0.921875 -8.09375 0.96875 -8.234375 1.0625 -8.328125 C 1.15625 -8.40625 1.265625 -8.4375 1.421875 -8.4375 L 5.609375 -8.4375 C 5.625 -8.4375 5.671875 -8.4375 5.703125 -8.421875 C 5.734375 -8.390625 5.765625 -8.34375 5.78125 -8.296875 C 5.796875 -8.25 5.8125 -8.171875 5.828125 -8.078125 C 5.84375 -8 5.84375 -7.890625 5.84375 -7.765625 C 5.84375 -7.640625 5.84375 -7.53125 5.828125 -7.453125 C 5.8125 -7.359375 5.796875 -7.296875 5.78125 -7.234375 C 5.765625 -7.1875 5.734375 -7.15625 5.703125 -7.140625 C 5.671875 -7.109375 5.625 -7.09375 5.609375 -7.09375 L 2.609375 -7.09375 L 2.609375 -5.03125 L 5.125 -5.03125 C 5.171875 -5.03125 5.203125 -5.015625 5.234375 -5 C 5.28125 -4.984375 5.296875 -4.9375 5.3125 -4.890625 C 5.34375 -4.84375 5.359375 -4.765625 5.359375 -4.6875 C 5.375 -4.609375 5.375 -4.5 5.375 -4.375 C 5.375 -4.25 5.375 -4.15625 5.359375 -4.0625 C 5.359375 -3.984375 5.34375 -3.921875 5.3125 -3.875 C 5.296875 -3.828125 5.28125 -3.78125 5.234375 -3.765625 C 5.203125 -3.734375 5.171875 -3.734375 5.125 -3.734375 L 2.609375 -3.734375 L 2.609375 -1.34375 L 5.625 -1.34375 C 5.65625 -1.34375 5.703125 -1.328125 5.71875 -1.3125 C 5.765625 -1.296875 5.796875 -1.25 5.796875 -1.203125 C 5.828125 -1.15625 5.84375 -1.078125 5.859375 -0.984375 C 5.875 -0.90625 5.875 -0.796875 5.875 -0.6875 Z M 5.875 -0.6875 "/>
</g>
<g id="glyph-0-4">
<path d="M 7.125 -0.234375 C 7.125 -0.171875 7.109375 -0.140625 7.109375 -0.109375 C 7.09375 -0.0625 7.046875 -0.046875 6.984375 -0.015625 C 6.921875 0 6.828125 0.015625 6.6875 0.03125 C 6.578125 0.046875 6.40625 0.046875 6.1875 0.046875 C 6 0.046875 5.859375 0.046875 5.75 0.03125 C 5.640625 0.015625 5.5625 0 5.5 -0.03125 C 5.4375 -0.046875 5.390625 -0.078125 5.359375 -0.125 C 5.34375 -0.140625 5.3125 -0.203125 5.296875 -0.25 L 4.546875 -2.140625 C 4.453125 -2.34375 4.375 -2.53125 4.28125 -2.71875 C 4.203125 -2.875 4.09375 -3.015625 3.984375 -3.125 C 3.875 -3.234375 3.765625 -3.3125 3.625 -3.375 C 3.484375 -3.4375 3.328125 -3.453125 3.140625 -3.453125 L 2.609375 -3.453125 L 2.609375 -0.234375 C 2.609375 -0.1875 2.59375 -0.140625 2.578125 -0.125 C 2.546875 -0.078125 2.484375 -0.046875 2.421875 -0.03125 C 2.375 -0.015625 2.28125 0.015625 2.171875 0.03125 C 2.0625 0.046875 1.921875 0.046875 1.765625 0.046875 C 1.609375 0.046875 1.453125 0.046875 1.34375 0.03125 C 1.25 0.015625 1.15625 -0.015625 1.09375 -0.03125 C 1.015625 -0.046875 0.984375 -0.078125 0.953125 -0.125 C 0.921875 -0.140625 0.921875 -0.1875 0.921875 -0.234375 L 0.921875 -7.90625 C 0.921875 -8.09375 0.96875 -8.234375 1.0625 -8.328125 C 1.15625 -8.40625 1.265625 -8.4375 1.421875 -8.4375 L 3.59375 -8.4375 C 3.796875 -8.4375 3.984375 -8.4375 4.140625 -8.4375 C 4.265625 -8.421875 4.40625 -8.421875 4.515625 -8.40625 C 4.84375 -8.34375 5.15625 -8.265625 5.4375 -8.15625 C 5.703125 -8.03125 5.921875 -7.875 6.109375 -7.6875 C 6.3125 -7.515625 6.4375 -7.28125 6.546875 -7.03125 C 6.640625 -6.765625 6.6875 -6.46875 6.6875 -6.125 C 6.6875 -5.84375 6.65625 -5.59375 6.578125 -5.359375 C 6.515625 -5.125 6.40625 -4.921875 6.265625 -4.75 C 6.140625 -4.5625 5.96875 -4.390625 5.765625 -4.265625 C 5.546875 -4.125 5.328125 -4.015625 5.0625 -3.9375 C 5.1875 -3.875 5.3125 -3.8125 5.421875 -3.71875 C 5.53125 -3.640625 5.625 -3.53125 5.734375 -3.390625 C 5.828125 -3.265625 5.921875 -3.125 6 -2.96875 C 6.09375 -2.8125 6.171875 -2.625 6.25 -2.4375 L 6.96875 -0.765625 C 7.03125 -0.59375 7.078125 -0.484375 7.109375 -0.40625 C 7.109375 -0.328125 7.125 -0.265625 7.125 -0.234375 Z M 4.921875 -5.953125 C 4.921875 -6.234375 4.859375 -6.46875 4.75 -6.65625 C 4.609375 -6.859375 4.40625 -6.984375 4.125 -7.0625 C 4.046875 -7.078125 3.953125 -7.109375 3.828125 -7.125 C 3.71875 -7.140625 3.5625 -7.140625 3.375 -7.140625 L 2.609375 -7.140625 L 2.609375 -4.75 L 3.484375 -4.75 C 3.71875 -4.75 3.9375 -4.765625 4.109375 -4.84375 C 4.296875 -4.890625 4.453125 -4.96875 4.578125 -5.078125 C 4.6875 -5.1875 4.78125 -5.3125 4.84375 -5.46875 C 4.90625 -5.609375 4.921875 -5.765625 4.921875 -5.953125 Z M 4.921875 -5.953125 "/>
</g>
<g id="glyph-0-5">
<path d="M 2.625 -0.234375 C 2.625 -0.1875 2.609375 -0.140625 2.578125 -0.125 C 2.5625 -0.078125 2.5 -0.046875 2.4375 -0.03125 C 2.390625 -0.015625 2.296875 0.015625 2.1875 0.03125 C 2.078125 0.046875 1.9375 0.046875 1.78125 0.046875 C 1.609375 0.046875 1.46875 0.046875 1.359375 0.03125 C 1.25 0.015625 1.171875 -0.015625 1.09375 -0.03125 C 1.03125 -0.046875 0.984375 -0.078125 0.953125 -0.125 C 0.921875 -0.140625 0.921875 -0.1875 0.921875 -0.234375 L 0.921875 -8.21875 C 0.921875 -8.25 0.921875 -8.296875 0.953125 -8.328125 C 0.984375 -8.359375 1.03125 -8.390625 1.09375 -8.421875 C 1.171875 -8.4375 1.265625 -8.453125 1.359375 -8.46875 C 1.46875 -8.484375 1.609375 -8.484375 1.78125 -8.484375 C 1.9375 -8.484375 2.078125 -8.484375 2.1875 -8.46875 C 2.296875 -8.453125 2.390625 -8.4375 2.4375 -8.421875 C 2.5 -8.390625 2.5625 -8.359375 2.578125 -8.328125 C 2.609375 -8.296875 2.625 -8.25 2.625 -8.21875 Z M 2.625 -0.234375 "/>
</g>
<g id="glyph-0-6">
<path d="M 5.890625 -2.53125 C 5.890625 -2.078125 5.796875 -1.703125 5.640625 -1.359375 C 5.46875 -1.03125 5.25 -0.75 4.96875 -0.53125 C 4.6875 -0.3125 4.359375 -0.140625 3.984375 -0.03125 C 3.625 0.09375 3.203125 0.140625 2.78125 0.140625 C 2.484375 0.140625 2.21875 0.125 1.96875 0.078125 C 1.71875 0.03125 1.515625 -0.046875 1.328125 -0.109375 C 1.125 -0.171875 0.96875 -0.234375 0.84375 -0.328125 C 0.71875 -0.390625 0.625 -0.453125 0.5625 -0.515625 C 0.515625 -0.578125 0.484375 -0.65625 0.453125 -0.765625 C 0.421875 -0.875 0.40625 -1.015625 0.40625 -1.21875 C 0.40625 -1.359375 0.40625 -1.46875 0.421875 -1.5625 C 0.4375 -1.65625 0.453125 -1.71875 0.46875 -1.78125 C 0.484375 -1.84375 0.515625 -1.890625 0.546875 -1.890625 C 0.578125 -1.921875 0.609375 -1.9375 0.65625 -1.9375 C 0.71875 -1.9375 0.8125 -1.890625 0.921875 -1.828125 C 1.015625 -1.765625 1.171875 -1.6875 1.34375 -1.59375 C 1.515625 -1.515625 1.71875 -1.421875 1.96875 -1.34375 C 2.203125 -1.28125 2.484375 -1.25 2.796875 -1.25 C 3 -1.25 3.1875 -1.265625 3.359375 -1.328125 C 3.515625 -1.359375 3.65625 -1.4375 3.765625 -1.515625 C 3.875 -1.609375 3.96875 -1.734375 4.03125 -1.875 C 4.09375 -2 4.125 -2.15625 4.125 -2.3125 C 4.125 -2.5 4.0625 -2.671875 3.96875 -2.8125 C 3.875 -2.9375 3.71875 -3.0625 3.5625 -3.171875 C 3.390625 -3.265625 3.203125 -3.375 3 -3.46875 C 2.78125 -3.5625 2.578125 -3.65625 2.34375 -3.765625 C 2.125 -3.875 1.890625 -4 1.6875 -4.125 C 1.46875 -4.25 1.28125 -4.40625 1.109375 -4.59375 C 0.953125 -4.78125 0.828125 -5 0.71875 -5.25 C 0.609375 -5.5 0.5625 -5.8125 0.5625 -6.15625 C 0.5625 -6.5625 0.640625 -6.921875 0.78125 -7.234375 C 0.921875 -7.53125 1.125 -7.78125 1.375 -7.984375 C 1.625 -8.1875 1.9375 -8.34375 2.28125 -8.4375 C 2.609375 -8.53125 2.984375 -8.59375 3.359375 -8.59375 C 3.5625 -8.59375 3.765625 -8.578125 3.96875 -8.546875 C 4.15625 -8.515625 4.34375 -8.46875 4.515625 -8.421875 C 4.6875 -8.359375 4.84375 -8.3125 4.96875 -8.25 C 5.09375 -8.171875 5.1875 -8.125 5.234375 -8.078125 C 5.28125 -8.046875 5.3125 -8 5.328125 -7.96875 C 5.34375 -7.9375 5.359375 -7.890625 5.359375 -7.859375 C 5.375 -7.796875 5.375 -7.734375 5.390625 -7.65625 C 5.390625 -7.59375 5.390625 -7.5 5.390625 -7.375 C 5.390625 -7.25 5.390625 -7.140625 5.375 -7.046875 C 5.375 -6.96875 5.359375 -6.90625 5.359375 -6.84375 C 5.34375 -6.78125 5.3125 -6.75 5.28125 -6.71875 C 5.265625 -6.6875 5.21875 -6.671875 5.171875 -6.671875 C 5.125 -6.671875 5.046875 -6.703125 4.9375 -6.765625 C 4.84375 -6.828125 4.71875 -6.890625 4.578125 -6.96875 C 4.40625 -7.046875 4.234375 -7.109375 4.046875 -7.15625 C 3.84375 -7.234375 3.625 -7.25 3.390625 -7.25 C 3.203125 -7.25 3.03125 -7.234375 2.90625 -7.1875 C 2.765625 -7.140625 2.65625 -7.078125 2.5625 -7 C 2.46875 -6.921875 2.390625 -6.828125 2.34375 -6.703125 C 2.3125 -6.59375 2.28125 -6.484375 2.28125 -6.34375 C 2.28125 -6.15625 2.328125 -6 2.4375 -5.859375 C 2.53125 -5.734375 2.671875 -5.59375 2.828125 -5.484375 C 3 -5.390625 3.203125 -5.296875 3.421875 -5.203125 C 3.625 -5.109375 3.859375 -5.015625 4.078125 -4.90625 C 4.3125 -4.796875 4.53125 -4.671875 4.75 -4.546875 C 4.953125 -4.40625 5.15625 -4.25 5.328125 -4.078125 C 5.484375 -3.890625 5.625 -3.671875 5.71875 -3.421875 C 5.828125 -3.171875 5.890625 -2.875 5.890625 -2.53125 Z M 5.890625 -2.53125 "/>
</g>
<g id="glyph-0-7">
</g>
<g id="glyph-0-8">
<path d="M 6.703125 -1.28125 C 6.703125 -1.15625 6.703125 -1.0625 6.6875 -1 C 6.6875 -0.921875 6.671875 -0.859375 6.671875 -0.796875 C 6.65625 -0.75 6.640625 -0.6875 6.609375 -0.65625 C 6.59375 -0.625 6.5625 -0.578125 6.5 -0.53125 C 6.46875 -0.484375 6.375 -0.421875 6.234375 -0.328125 C 6.09375 -0.265625 5.9375 -0.1875 5.734375 -0.125 C 5.53125 -0.046875 5.3125 0.015625 5.0625 0.0625 C 4.8125 0.109375 4.546875 0.140625 4.25 0.140625 C 3.671875 0.140625 3.15625 0.046875 2.703125 -0.140625 C 2.234375 -0.3125 1.84375 -0.578125 1.53125 -0.9375 C 1.1875 -1.28125 0.953125 -1.71875 0.78125 -2.25 C 0.609375 -2.796875 0.515625 -3.40625 0.515625 -4.109375 C 0.515625 -4.828125 0.609375 -5.46875 0.8125 -6.03125 C 1 -6.578125 1.265625 -7.046875 1.609375 -7.421875 C 1.9375 -7.796875 2.34375 -8.078125 2.828125 -8.28125 C 3.296875 -8.484375 3.828125 -8.578125 4.40625 -8.578125 C 4.625 -8.578125 4.84375 -8.5625 5.078125 -8.515625 C 5.28125 -8.484375 5.484375 -8.4375 5.671875 -8.359375 C 5.859375 -8.296875 6.015625 -8.234375 6.15625 -8.15625 C 6.3125 -8.0625 6.40625 -7.984375 6.46875 -7.9375 C 6.53125 -7.875 6.578125 -7.828125 6.578125 -7.78125 C 6.609375 -7.75 6.625 -7.6875 6.640625 -7.640625 C 6.65625 -7.578125 6.671875 -7.515625 6.671875 -7.421875 C 6.671875 -7.328125 6.671875 -7.234375 6.671875 -7.125 C 6.671875 -6.984375 6.671875 -6.875 6.671875 -6.78125 C 6.65625 -6.6875 6.640625 -6.609375 6.625 -6.5625 C 6.59375 -6.5 6.578125 -6.46875 6.546875 -6.4375 C 6.515625 -6.40625 6.484375 -6.40625 6.4375 -6.40625 C 6.375 -6.40625 6.296875 -6.4375 6.203125 -6.515625 C 6.09375 -6.59375 5.96875 -6.671875 5.8125 -6.765625 C 5.65625 -6.859375 5.46875 -6.953125 5.25 -7.03125 C 5.03125 -7.09375 4.765625 -7.140625 4.46875 -7.140625 C 4.140625 -7.140625 3.84375 -7.0625 3.578125 -6.9375 C 3.328125 -6.78125 3.09375 -6.59375 2.921875 -6.34375 C 2.734375 -6.09375 2.59375 -5.78125 2.5 -5.421875 C 2.40625 -5.0625 2.359375 -4.65625 2.359375 -4.203125 C 2.359375 -3.71875 2.40625 -3.265625 2.515625 -2.90625 C 2.609375 -2.546875 2.75 -2.25 2.9375 -2.015625 C 3.125 -1.796875 3.359375 -1.609375 3.625 -1.5 C 3.875 -1.375 4.1875 -1.328125 4.515625 -1.328125 C 4.828125 -1.328125 5.078125 -1.359375 5.296875 -1.421875 C 5.515625 -1.5 5.703125 -1.578125 5.859375 -1.671875 C 6.015625 -1.75 6.140625 -1.828125 6.25 -1.890625 C 6.34375 -1.96875 6.421875 -2 6.5 -2 C 6.53125 -2 6.5625 -1.984375 6.578125 -1.984375 C 6.609375 -1.96875 6.640625 -1.921875 6.65625 -1.875 C 6.671875 -1.8125 6.671875 -1.75 6.6875 -1.65625 C 6.703125 -1.5625 6.703125 -1.421875 6.703125 -1.28125 Z M 6.703125 -1.28125 "/>
</g>
<g id="glyph-0-9">
<path d="M 8.4375 -4.3125 C 8.4375 -3.625 8.359375 -3 8.1875 -2.4375 C 8.015625 -1.890625 7.75 -1.421875 7.40625 -1.046875 C 7.078125 -0.65625 6.65625 -0.359375 6.140625 -0.15625 C 5.640625 0.046875 5.0625 0.140625 4.40625 0.140625 C 3.75 0.140625 3.1875 0.0625 2.703125 -0.109375 C 2.21875 -0.28125 1.8125 -0.546875 1.484375 -0.890625 C 1.171875 -1.25 0.921875 -1.703125 0.75 -2.25 C 0.59375 -2.78125 0.515625 -3.4375 0.515625 -4.171875 C 0.515625 -4.84375 0.609375 -5.46875 0.78125 -6.015625 C 0.953125 -6.5625 1.203125 -7.03125 1.546875 -7.40625 C 1.875 -7.78125 2.3125 -8.078125 2.8125 -8.28125 C 3.3125 -8.484375 3.890625 -8.59375 4.5625 -8.59375 C 5.1875 -8.59375 5.75 -8.515625 6.234375 -8.34375 C 6.71875 -8.15625 7.125 -7.90625 7.453125 -7.546875 C 7.78125 -7.203125 8.03125 -6.765625 8.1875 -6.21875 C 8.359375 -5.671875 8.4375 -5.046875 8.4375 -4.3125 Z M 6.65625 -4.234375 C 6.65625 -4.671875 6.609375 -5.078125 6.546875 -5.4375 C 6.484375 -5.8125 6.359375 -6.125 6.203125 -6.375 C 6.03125 -6.640625 5.8125 -6.84375 5.53125 -6.96875 C 5.265625 -7.125 4.921875 -7.1875 4.5 -7.1875 C 4.078125 -7.1875 3.734375 -7.109375 3.453125 -6.953125 C 3.1875 -6.78125 2.953125 -6.578125 2.78125 -6.3125 C 2.609375 -6.046875 2.484375 -5.75 2.40625 -5.390625 C 2.34375 -5.015625 2.3125 -4.65625 2.3125 -4.265625 C 2.3125 -3.796875 2.34375 -3.375 2.40625 -3.015625 C 2.484375 -2.640625 2.59375 -2.34375 2.75 -2.078125 C 2.921875 -1.8125 3.140625 -1.609375 3.421875 -1.46875 C 3.703125 -1.328125 4.046875 -1.265625 4.453125 -1.265625 C 4.875 -1.265625 5.21875 -1.34375 5.5 -1.515625 C 5.78125 -1.65625 6.015625 -1.875 6.1875 -2.15625 C 6.359375 -2.421875 6.484375 -2.71875 6.546875 -3.09375 C 6.609375 -3.453125 6.65625 -3.828125 6.65625 -4.234375 Z M 6.65625 -4.234375 "/>
</g>
<g id="glyph-0-10">
<path d="M 7.8125 -0.59375 C 7.8125 -0.5 7.796875 -0.421875 7.765625 -0.328125 C 7.734375 -0.25 7.6875 -0.1875 7.625 -0.140625 C 7.5625 -0.078125 7.5 -0.046875 7.421875 -0.03125 C 7.34375 0 7.265625 0.015625 7.1875 0.015625 L 6.453125 0.015625 C 6.296875 0.015625 6.171875 0 6.0625 -0.03125 C 5.953125 -0.0625 5.84375 -0.125 5.75 -0.203125 C 5.65625 -0.28125 5.578125 -0.390625 5.484375 -0.515625 C 5.40625 -0.671875 5.296875 -0.84375 5.1875 -1.0625 L 3.109375 -5.015625 C 3 -5.234375 2.875 -5.484375 2.75 -5.765625 C 2.625 -6.03125 2.515625 -6.3125 2.40625 -6.5625 L 2.390625 -6.5625 C 2.40625 -6.25 2.421875 -5.9375 2.4375 -5.625 C 2.453125 -5.3125 2.453125 -5 2.453125 -4.65625 L 2.453125 -0.234375 C 2.453125 -0.203125 2.4375 -0.15625 2.40625 -0.125 C 2.390625 -0.09375 2.34375 -0.0625 2.296875 -0.046875 C 2.234375 -0.015625 2.15625 0.015625 2.046875 0.03125 C 1.96875 0.046875 1.828125 0.046875 1.671875 0.046875 C 1.53125 0.046875 1.390625 0.046875 1.296875 0.03125 C 1.1875 0.015625 1.125 -0.015625 1.0625 -0.046875 C 1 -0.046875 0.96875 -0.09375 0.953125 -0.125 C 0.921875 -0.15625 0.921875 -0.203125 0.921875 -0.234375 L 0.921875 -7.828125 C 0.921875 -8.03125 0.984375 -8.1875 1.09375 -8.296875 C 1.203125 -8.390625 1.34375 -8.4375 1.53125 -8.4375 L 2.4375 -8.4375 C 2.609375 -8.4375 2.75 -8.4375 2.859375 -8.40625 C 2.96875 -8.375 3.078125 -8.328125 3.15625 -8.25 C 3.25 -8.203125 3.328125 -8.109375 3.40625 -7.984375 C 3.484375 -7.875 3.5625 -7.734375 3.640625 -7.5625 L 5.28125 -4.46875 C 5.359375 -4.28125 5.453125 -4.09375 5.546875 -3.921875 C 5.640625 -3.734375 5.734375 -3.5625 5.8125 -3.375 C 5.90625 -3.203125 5.984375 -3.015625 6.0625 -2.84375 C 6.15625 -2.671875 6.234375 -2.5 6.3125 -2.328125 C 6.3125 -2.625 6.296875 -2.953125 6.296875 -3.265625 C 6.28125 -3.609375 6.28125 -3.921875 6.28125 -4.21875 L 6.28125 -8.1875 C 6.28125 -8.234375 6.296875 -8.265625 6.3125 -8.3125 C 6.34375 -8.34375 6.390625 -8.375 6.453125 -8.40625 C 6.5 -8.4375 6.578125 -8.4375 6.6875 -8.453125 C 6.78125 -8.46875 6.921875 -8.46875 7.078125 -8.46875 C 7.21875 -8.46875 7.34375 -8.46875 7.453125 -8.453125 C 7.546875 -8.4375 7.625 -8.4375 7.671875 -8.40625 C 7.71875 -8.375 7.765625 -8.34375 7.796875 -8.3125 C 7.796875 -8.265625 7.8125 -8.234375 7.8125 -8.1875 Z M 7.8125 -0.59375 "/>
</g>
<g id="glyph-0-11">
<path d="M 5.875 -0.6875 C 5.875 -0.546875 5.875 -0.4375 5.859375 -0.359375 C 5.84375 -0.265625 5.828125 -0.203125 5.796875 -0.140625 C 5.796875 -0.09375 5.765625 -0.0625 5.71875 -0.046875 C 5.703125 -0.015625 5.65625 0 5.625 0 L 1.421875 0 C 1.265625 0 1.15625 -0.046875 1.0625 -0.140625 C 0.96875 -0.21875 0.921875 -0.34375 0.921875 -0.546875 L 0.921875 -7.90625 C 0.921875 -8.09375 0.96875 -8.234375 1.0625 -8.328125 C 1.15625 -8.40625 1.265625 -8.4375 1.421875 -8.4375 L 5.609375 -8.4375 C 5.625 -8.4375 5.671875 -8.4375 5.703125 -8.421875 C 5.734375 -8.390625 5.765625 -8.34375 5.78125 -8.296875 C 5.796875 -8.25 5.8125 -8.171875 5.828125 -8.078125 C 5.84375 -8 5.84375 -7.890625 5.84375 -7.765625 C 5.84375 -7.640625 5.84375 -7.53125 5.828125 -7.453125 C 5.8125 -7.359375 5.796875 -7.296875 5.78125 -7.234375 C 5.765625 -7.1875 5.734375 -7.15625 5.703125 -7.140625 C 5.671875 -7.109375 5.625 -7.09375 5.609375 -7.09375 L 2.609375 -7.09375 L 2.609375 -5.03125 L 5.125 -5.03125 C 5.171875 -5.03125 5.203125 -5.015625 5.234375 -5 C 5.28125 -4.984375 5.296875 -4.9375 5.3125 -4.890625 C 5.34375 -4.84375 5.359375 -4.765625 5.359375 -4.6875 C 5.375 -4.609375 5.375 -4.5 5.375 -4.375 C 5.375 -4.25 5.375 -4.15625 5.359375 -4.0625 C 5.359375 -3.984375 5.34375 -3.921875 5.3125 -3.875 C 5.296875 -3.828125 5.28125 -3.78125 5.234375 -3.765625 C 5.203125 -3.734375 5.171875 -3.734375 5.125 -3.734375 L 2.609375 -3.734375 L 2.609375 -1.34375 L 5.625 -1.34375 C 5.65625 -1.34375 5.703125 -1.328125 5.71875 -1.3125 C 5.765625 -1.296875 5.796875 -1.25 5.796875 -1.203125 C 5.828125 -1.15625 5.84375 -1.078125 5.859375 -0.984375 C 5.875 -0.90625 5.875 -0.796875 5.875 -0.6875 Z M 3.40625 -11.015625 C 3.546875 -11.015625 3.671875 -11.015625 3.765625 -11.015625 C 3.859375 -11.015625 3.9375 -11 4 -10.984375 C 4.0625 -10.953125 4.125 -10.921875 4.171875 -10.90625 C 4.234375 -10.859375 4.28125 -10.828125 4.328125 -10.75 L 5.625 -9.359375 C 5.671875 -9.296875 5.703125 -9.25 5.703125 -9.203125 C 5.71875 -9.171875 5.703125 -9.140625 5.671875 -9.109375 C 5.625 -9.078125 5.578125 -9.078125 5.484375 -9.0625 C 5.390625 -9.046875 5.28125 -9.046875 5.109375 -9.046875 C 4.9375 -9.046875 4.796875 -9.046875 4.6875 -9.0625 C 4.578125 -9.0625 4.484375 -9.078125 4.40625 -9.078125 C 4.34375 -9.09375 4.296875 -9.125 4.265625 -9.15625 C 4.234375 -9.171875 4.1875 -9.203125 4.15625 -9.25 L 3.40625 -10.140625 L 2.609375 -9.265625 C 2.578125 -9.21875 2.53125 -9.171875 2.484375 -9.15625 C 2.453125 -9.125 2.390625 -9.109375 2.328125 -9.09375 C 2.265625 -9.078125 2.1875 -9.0625 2.078125 -9.0625 C 1.96875 -9.046875 1.828125 -9.046875 1.640625 -9.046875 C 1.5 -9.046875 1.375 -9.046875 1.296875 -9.0625 C 1.203125 -9.078125 1.15625 -9.078125 1.109375 -9.109375 C 1.078125 -9.140625 1.0625 -9.171875 1.078125 -9.203125 C 1.078125 -9.25 1.109375 -9.296875 1.171875 -9.359375 L 2.421875 -10.75 C 2.46875 -10.8125 2.515625 -10.859375 2.578125 -10.890625 C 2.640625 -10.921875 2.703125 -10.953125 2.765625 -10.96875 C 2.84375 -11 2.9375 -11.015625 3.046875 -11.015625 C 3.140625 -11.015625 3.265625 -11.015625 3.40625 -11.015625 Z M 3.40625 -11.015625 "/>
</g>
<g id="glyph-0-12">
<path d="M 7.875 -4.34375 C 7.875 -3.5625 7.78125 -2.90625 7.5625 -2.359375 C 7.359375 -1.796875 7.09375 -1.359375 6.703125 -1.015625 C 6.328125 -0.671875 5.875 -0.421875 5.34375 -0.234375 C 4.796875 -0.078125 4.15625 0 3.421875 0 L 1.421875 0 C 1.265625 0 1.15625 -0.046875 1.0625 -0.140625 C 0.96875 -0.21875 0.921875 -0.34375 0.921875 -0.546875 L 0.921875 -7.90625 C 0.921875 -8.09375 0.96875 -8.234375 1.0625 -8.328125 C 1.15625 -8.40625 1.265625 -8.4375 1.421875 -8.4375 L 3.5625 -8.4375 C 4.3125 -8.4375 4.9375 -8.34375 5.46875 -8.171875 C 5.984375 -8 6.421875 -7.75 6.78125 -7.40625 C 7.140625 -7.046875 7.40625 -6.625 7.59375 -6.125 C 7.78125 -5.609375 7.875 -5.015625 7.875 -4.34375 Z M 6.109375 -4.28125 C 6.109375 -4.6875 6.0625 -5.0625 5.96875 -5.390625 C 5.890625 -5.75 5.71875 -6.03125 5.53125 -6.296875 C 5.3125 -6.546875 5.0625 -6.75 4.734375 -6.875 C 4.40625 -7.03125 3.984375 -7.09375 3.46875 -7.09375 L 2.609375 -7.09375 L 2.609375 -1.359375 L 3.5 -1.359375 C 3.96875 -1.359375 4.359375 -1.421875 4.671875 -1.546875 C 5 -1.671875 5.265625 -1.859375 5.46875 -2.09375 C 5.6875 -2.34375 5.84375 -2.640625 5.953125 -3 C 6.0625 -3.375 6.109375 -3.8125 6.109375 -4.28125 Z M 6.109375 -4.28125 "/>
</g>
</g>
</defs>
<g fill="#FFFFFF" fill-opacity="1">
<use xlink:href="#glyph-0-0" x="15.299673" y="126.452172"/>
</g>
<g fill="#FFFFFF" fill-opacity="1">
<use xlink:href="#glyph-0-1" x="26.780237" y="126.452172"/>
</g>
<g fill="#FFFFFF" fill-opacity="1">
<use xlink:href="#glyph-0-2" x="33.673568" y="126.452172"/>
</g>
<g fill="#FFFFFF" fill-opacity="1">
<use xlink:href="#glyph-0-3" x="40.133279" y="126.452172"/>
</g>
<g fill="#FFFFFF" fill-opacity="1">
<use xlink:href="#glyph-0-4" x="46.495904" y="126.452172"/>
</g>
<g fill="#FFFFFF" fill-opacity="1">
<use xlink:href="#glyph-0-5" x="53.854556" y="126.452172"/>
</g>
<g fill="#FFFFFF" fill-opacity="1">
<use xlink:href="#glyph-0-1" x="57.286164" y="126.452172"/>
</g>
<g fill="#FFFFFF" fill-opacity="1">
<use xlink:href="#glyph-0-5" x="65.215149" y="126.452172"/>
</g>
<g fill="#FFFFFF" fill-opacity="1">
<use xlink:href="#glyph-0-6" x="68.646558" y="126.452172"/>
<use xlink:href="#glyph-0-7" x="74.91536" y="126.452172"/>
</g>
<g fill="#FFFFFF" fill-opacity="1">
<use xlink:href="#glyph-0-8" x="77.803587" y="126.452172"/>
</g>
<g fill="#FFFFFF" fill-opacity="1">
<use xlink:href="#glyph-0-9" x="84.619149" y="126.452172"/>
</g>
<g fill="#FFFFFF" fill-opacity="1">
<use xlink:href="#glyph-0-10" x="93.480164" y="126.452172"/>
</g>
<g fill="#FFFFFF" fill-opacity="1">
<use xlink:href="#glyph-0-2" x="102.106982" y="126.452172"/>
</g>
<g fill="#FFFFFF" fill-opacity="1">
<use xlink:href="#glyph-0-4" x="108.566694" y="126.452172"/>
</g>
<g fill="#FFFFFF" fill-opacity="1">
<use xlink:href="#glyph-0-1" x="115.925643" y="126.452172"/>
<use xlink:href="#glyph-0-7" x="123.957131" y="126.452172"/>
</g>
<g fill="#FFFFFF" fill-opacity="1">
<use xlink:href="#glyph-0-5" x="126.849644" y="126.452172"/>
</g>
<g fill="#FFFFFF" fill-opacity="1">
<use xlink:href="#glyph-0-10" x="130.281053" y="126.452172"/>
</g>
<g fill="#FFFFFF" fill-opacity="1">
<use xlink:href="#glyph-0-8" x="138.907871" y="126.452172"/>
</g>
<g fill="#FFFFFF" fill-opacity="1">
<use xlink:href="#glyph-0-11" x="145.820322" y="126.452172"/>
</g>
<g fill="#FFFFFF" fill-opacity="1">
<use xlink:href="#glyph-0-10" x="152.182947" y="126.452172"/>
</g>
<g fill="#FFFFFF" fill-opacity="1">
<use xlink:href="#glyph-0-12" x="160.809766" y="126.452172"/>
</g>
<g fill="#FFFFFF" fill-opacity="1">
<use xlink:href="#glyph-0-5" x="169.060919" y="126.452172"/>
</g>
<g fill="#FFFFFF" fill-opacity="1">
<use xlink:href="#glyph-0-9" x="172.492031" y="126.452172"/>
</g>
<path fill-rule="nonzero" fill="rgba(255,255,255,0.18)" fill-opacity="1" d="M 68.535156 107.167969 L 75.519531 84.359375 L 69.96875 84.359375 L 71.6875 78.773438 L 89.222656 78.773438 L 87.519531 84.359375 L 82.226562 84.359375 L 75.242188 107.167969 Z M 94.519531 78.773438 L 101.160156 78.773438 L 95.527344 97.238281 C 95.203125 98.269531 94.964844 99.082031 94.808594 99.679688 C 94.644531 100.277344 94.550781 100.726562 94.523438 101.019531 C 94.472656 101.574219 94.59375 102 94.890625 102.316406 C 95.183594 102.632812 95.617188 102.789062 96.183594 102.789062 C 97.65625 102.789062 98.953125 100.964844 100.070312 97.3125 L 100.207031 96.867188 L 105.765625 78.773438 L 112.40625 78.773438 L 106.675781 97.476562 C 105.96875 99.800781 105.367188 101.480469 104.886719 102.523438 C 104.398438 103.570312 103.878906 104.386719 103.332031 104.972656 C 102.417969 105.953125 101.378906 106.683594 100.214844 107.148438 C 99.050781 107.617188 97.707031 107.847656 96.183594 107.847656 C 93.242188 107.847656 91.101562 107.28125 89.757812 106.15625 C 88.414062 105.023438 87.851562 103.3125 88.066406 101.015625 C 88.121094 100.433594 88.277344 99.628906 88.535156 98.589844 C 88.796875 97.550781 89.164062 96.242188 89.640625 94.667969 Z M 118.71875 102.335938 L 120.414062 102.335938 C 121.691406 102.335938 122.722656 101.914062 123.515625 101.066406 C 124.300781 100.214844 124.765625 99.019531 124.910156 97.46875 C 124.996094 96.582031 124.839844 95.898438 124.453125 95.40625 C 124.0625 94.914062 123.46875 94.667969 122.683594 94.667969 L 121.066406 94.667969 Z M 110.667969 107.167969 L 119.394531 78.773438 L 125.382812 78.773438 C 129.023438 78.773438 131.515625 79.226562 132.878906 80.125 C 134.234375 81.03125 134.8125 82.566406 134.609375 84.730469 C 134.410156 86.820312 133.816406 88.539062 132.828125 89.894531 C 131.828125 91.246094 130.453125 92.214844 128.707031 92.789062 C 129.746094 93.261719 130.484375 93.910156 130.929688 94.730469 C 131.367188 95.5625 131.527344 96.601562 131.410156 97.839844 C 131.113281 101 130.078125 103.34375 128.304688 104.871094 C 126.53125 106.402344 123.960938 107.167969 120.605469 107.167969 Z M 122.464844 90.175781 L 123.976562 90.175781 C 125.152344 90.175781 126.109375 89.785156 126.835938 89.011719 C 127.570312 88.238281 128 87.148438 128.128906 85.757812 C 128.207031 84.945312 128.0625 84.328125 127.707031 83.902344 C 127.351562 83.480469 126.804688 83.265625 126.066406 83.265625 L 124.589844 83.265625 Z M 146.710938 89.226562 L 144.421875 96.675781 C 144.09375 97.710938 143.84375 98.558594 143.667969 99.226562 C 143.496094 99.886719 143.394531 100.386719 143.363281 100.71875 C 143.304688 101.308594 143.4375 101.78125 143.75 102.140625 C 144.070312 102.5 144.519531 102.675781 145.097656 102.675781 C 145.953125 102.675781 146.644531 102.347656 147.164062 101.6875 C 147.695312 101.03125 148.363281 99.359375 149.179688 96.675781 L 151.464844 89.261719 C 151.796875 88.230469 152.046875 87.382812 152.222656 86.714844 C 152.390625 86.054688 152.496094 85.558594 152.527344 85.222656 C 152.582031 84.632812 152.445312 84.160156 152.117188 83.800781 C 151.789062 83.441406 151.324219 83.265625 150.742188 83.265625 C 149.890625 83.265625 149.210938 83.582031 148.707031 84.214844 C 148.199219 84.851562 147.53125 86.519531 146.710938 89.226562 Z M 137 100.492188 C 137.054688 99.925781 137.171875 99.21875 137.347656 98.363281 C 137.527344 97.507812 137.761719 96.5625 138.042969 95.53125 C 138.863281 92.4375 139.613281 89.941406 140.300781 88.050781 C 140.988281 86.152344 141.753906 84.460938 142.582031 82.957031 C 143.46875 81.339844 144.675781 80.117188 146.179688 79.308594 C 147.691406 78.496094 149.496094 78.09375 151.613281 78.09375 C 154.199219 78.09375 156.109375 78.734375 157.355469 80.011719 C 158.597656 81.289062 159.105469 83.144531 158.875 85.574219 C 158.828125 86.078125 158.714844 86.738281 158.542969 87.550781 C 158.367188 88.363281 158.132812 89.3125 157.847656 90.410156 C 157.078125 93.234375 156.332031 95.664062 155.605469 97.691406 C 154.878906 99.71875 154.15625 101.390625 153.445312 102.707031 C 152.496094 104.449219 151.265625 105.746094 149.769531 106.585938 C 148.269531 107.425781 146.433594 107.847656 144.277344 107.847656 C 141.695312 107.847656 139.777344 107.214844 138.53125 105.949219 C 137.285156 104.683594 136.777344 102.863281 137 100.492188 Z M 160.597656 97.238281 L 166.675781 97.238281 C 166.671875 97.277344 166.667969 97.320312 166.664062 97.371094 C 166.554688 97.992188 166.488281 98.425781 166.464844 98.679688 C 166.332031 100.078125 166.457031 101.109375 166.835938 101.761719 C 167.214844 102.425781 167.875 102.75 168.808594 102.75 C 169.542969 102.75 170.152344 102.492188 170.636719 101.984375 C 171.117188 101.472656 171.402344 100.773438 171.488281 99.894531 C 171.621094 98.476562 170.753906 96.890625 168.902344 95.136719 C 168.417969 94.664062 168.035156 94.296875 167.773438 94.027344 C 166.492188 92.726562 165.585938 91.449219 165.0625 90.1875 C 164.53125 88.9375 164.335938 87.597656 164.472656 86.167969 C 164.71875 83.5625 165.667969 81.558594 167.316406 80.15625 C 168.964844 78.753906 171.203125 78.054688 174.042969 78.054688 C 176.621094 78.054688 178.519531 78.710938 179.734375 80.019531 C 180.953125 81.328125 181.4375 83.253906 181.199219 85.796875 C 181.15625 86.242188 181.117188 86.582031 181.082031 86.820312 C 181.046875 87.0625 181 87.289062 180.945312 87.496094 L 175.261719 87.496094 L 175.308594 86.996094 C 175.445312 85.523438 175.355469 84.46875 175.046875 83.839844 C 174.726562 83.203125 174.128906 82.886719 173.242188 82.886719 C 172.554688 82.886719 172 83.109375 171.566406 83.542969 C 171.140625 83.976562 170.890625 84.582031 170.820312 85.34375 C 170.746094 86.105469 170.882812 86.808594 171.21875 87.464844 C 171.550781 88.113281 172.335938 89.019531 173.566406 90.167969 C 173.613281 90.21875 173.683594 90.289062 173.769531 90.371094 C 176.773438 93.261719 178.144531 96.15625 177.871094 99.058594 C 177.601562 101.921875 176.628906 104.089844 174.960938 105.582031 C 173.289062 107.070312 170.960938 107.8125 167.96875 107.8125 C 165.15625 107.8125 163.113281 107.0625 161.851562 105.570312 C 160.582031 104.078125 160.085938 101.84375 160.367188 98.859375 C 160.398438 98.527344 160.464844 98.03125 160.566406 97.371094 Z M 160.597656 97.238281 "/>
<path fill-rule="nonzero" fill="rgba(255,255,255,0.18)" fill-opacity="1" d="M 67.070312 107.167969 L 74.054688 84.359375 L 68.503906 84.359375 L 70.226562 78.773438 L 87.761719 78.773438 L 86.058594 84.359375 L 80.765625 84.359375 L 73.78125 107.167969 Z M 93.054688 78.773438 L 99.695312 78.773438 L 94.066406 97.238281 C 93.742188 98.269531 93.5 99.082031 93.34375 99.679688 C 93.179688 100.277344 93.089844 100.726562 93.0625 101.019531 C 93.007812 101.574219 93.132812 102 93.429688 102.316406 C 93.71875 102.632812 94.152344 102.789062 94.71875 102.789062 C 96.191406 102.789062 97.492188 100.964844 98.609375 97.3125 L 98.746094 96.867188 L 104.304688 78.773438 L 110.941406 78.773438 L 105.214844 97.476562 C 104.503906 99.800781 103.90625 101.480469 103.421875 102.523438 C 102.933594 103.570312 102.417969 104.386719 101.871094 104.972656 C 100.953125 105.953125 99.914062 106.683594 98.75 107.148438 C 97.585938 107.617188 96.242188 107.847656 94.71875 107.847656 C 91.78125 107.847656 89.636719 107.28125 88.296875 106.15625 C 86.949219 105.023438 86.386719 103.3125 86.605469 101.015625 C 86.660156 100.433594 86.816406 99.628906 87.070312 98.589844 C 87.332031 97.550781 87.703125 96.242188 88.175781 94.667969 Z M 117.257812 102.335938 L 118.949219 102.335938 C 120.226562 102.335938 121.261719 101.914062 122.054688 101.066406 C 122.839844 100.214844 123.304688 99.019531 123.449219 97.46875 C 123.53125 96.582031 123.378906 95.898438 122.988281 95.40625 C 122.601562 94.914062 122.007812 94.667969 121.222656 94.667969 L 119.601562 94.667969 Z M 109.203125 107.167969 L 117.929688 78.773438 L 123.921875 78.773438 C 127.558594 78.773438 130.054688 79.226562 131.414062 80.125 C 132.769531 81.03125 133.351562 82.566406 133.144531 84.730469 C 132.949219 86.820312 132.351562 88.539062 131.363281 89.894531 C 130.367188 91.246094 128.992188 92.214844 127.246094 92.789062 C 128.285156 93.261719 129.019531 93.910156 129.464844 94.730469 C 129.902344 95.5625 130.0625 96.601562 129.945312 97.839844 C 129.648438 101 128.617188 103.34375 126.84375 104.871094 C 125.066406 106.402344 122.496094 107.167969 119.140625 107.167969 Z M 121.003906 90.175781 L 122.511719 90.175781 C 123.691406 90.175781 124.644531 89.785156 125.371094 89.011719 C 126.105469 88.238281 126.535156 87.148438 126.667969 85.757812 C 126.746094 84.945312 126.601562 84.328125 126.246094 83.902344 C 125.886719 83.480469 125.339844 83.265625 124.605469 83.265625 L 123.125 83.265625 Z M 145.25 89.226562 L 142.960938 96.675781 C 142.628906 97.710938 142.378906 98.558594 142.203125 99.226562 C 142.035156 99.886719 141.929688 100.386719 141.898438 100.71875 C 141.84375 101.308594 141.976562 101.78125 142.289062 102.140625 C 142.605469 102.5 143.054688 102.675781 143.632812 102.675781 C 144.492188 102.675781 145.183594 102.347656 145.703125 101.6875 C 146.230469 101.03125 146.898438 99.359375 147.71875 96.675781 L 150.003906 89.261719 C 150.332031 88.230469 150.582031 87.382812 150.757812 86.714844 C 150.929688 86.054688 151.03125 85.558594 151.0625 85.222656 C 151.121094 84.632812 150.980469 84.160156 150.65625 83.800781 C 150.324219 83.441406 149.863281 83.265625 149.277344 83.265625 C 148.429688 83.265625 147.75 83.582031 147.242188 84.214844 C 146.738281 84.851562 146.070312 86.519531 145.25 89.226562 Z M 135.539062 100.492188 C 135.589844 99.925781 135.707031 99.21875 135.882812 98.363281 C 136.066406 97.507812 136.296875 96.5625 136.578125 95.53125 C 137.398438 92.4375 138.152344 89.941406 138.839844 88.050781 C 139.527344 86.152344 140.289062 84.460938 141.121094 82.957031 C 142.007812 81.339844 143.210938 80.117188 144.71875 79.308594 C 146.230469 78.496094 148.035156 78.09375 150.148438 78.09375 C 152.734375 78.09375 154.644531 78.734375 155.890625 80.011719 C 157.136719 81.289062 157.640625 83.144531 157.414062 85.574219 C 157.363281 86.078125 157.253906 86.738281 157.082031 87.550781 C 156.902344 88.363281 156.667969 89.3125 156.382812 90.410156 C 155.613281 93.234375 154.867188 95.664062 154.144531 97.691406 C 153.417969 99.71875 152.691406 101.390625 151.984375 102.707031 C 151.03125 104.449219 149.800781 105.746094 148.308594 106.585938 C 146.804688 107.425781 144.972656 107.847656 142.8125 107.847656 C 140.230469 107.847656 138.316406 107.214844 137.070312 105.949219 C 135.824219 104.683594 135.316406 102.863281 135.539062 100.492188 Z M 159.132812 97.238281 L 165.214844 97.238281 C 165.210938 97.277344 165.207031 97.320312 165.199219 97.371094 C 165.09375 97.992188 165.027344 98.425781 165.003906 98.679688 C 164.871094 100.078125 164.992188 101.109375 165.371094 101.761719 C 165.75 102.425781 166.414062 102.75 167.34375 102.75 C 168.082031 102.75 168.691406 102.492188 169.171875 101.984375 C 169.652344 101.472656 169.941406 100.773438 170.023438 99.894531 C 170.15625 98.476562 169.292969 96.890625 167.4375 95.136719 C 166.953125 94.664062 166.574219 94.296875 166.308594 94.027344 C 165.027344 92.726562 164.125 91.449219 163.601562 90.1875 C 163.070312 88.9375 162.875 87.597656 163.007812 86.167969 C 163.253906 83.5625 164.207031 81.558594 165.855469 80.15625 C 167.503906 78.753906 169.742188 78.054688 172.578125 78.054688 C 175.160156 78.054688 177.054688 78.710938 178.273438 80.019531 C 179.488281 81.328125 179.976562 83.253906 179.734375 85.796875 C 179.695312 86.242188 179.65625 86.582031 179.621094 86.820312 C 179.585938 87.0625 179.539062 87.289062 179.480469 87.496094 L 173.796875 87.496094 L 173.84375 86.996094 C 173.984375 85.523438 173.894531 84.46875 173.582031 83.839844 C 173.265625 83.203125 172.664062 82.886719 171.777344 82.886719 C 171.089844 82.886719 170.535156 83.109375 170.105469 83.542969 C 169.679688 83.976562 169.429688 84.582031 169.355469 85.34375 C 169.285156 86.105469 169.417969 86.808594 169.753906 87.464844 C 170.089844 88.113281 170.871094 89.019531 172.105469 90.167969 C 172.148438 90.21875 172.21875 90.289062 172.304688 90.371094 C 175.3125 93.261719 176.683594 96.15625 176.410156 99.058594 C 176.140625 101.921875 175.167969 104.089844 173.496094 105.582031 C 171.828125 107.070312 169.496094 107.8125 166.507812 107.8125 C 163.695312 107.8125 161.648438 107.0625 160.386719 105.570312 C 159.117188 104.078125 158.625 101.84375 158.90625 98.859375 C 158.9375 98.527344 159.003906 98.03125 159.101562 97.371094 Z M 159.132812 97.238281 "/>
<path fill-rule="nonzero" fill="rgba(255,255,255,0.18)" fill-opacity="1" d="M 19.378906 107.167969 L 25.429688 78.773438 L 32.105469 78.773438 L 27.273438 101.582031 L 36.070312 101.582031 L 34.90625 107.167969 Z M 35.066406 107.167969 L 41.117188 78.773438 L 50.203125 78.773438 L 50.097656 95.054688 L 50.410156 95.054688 C 50.789062 93.972656 51.140625 93.019531 51.460938 92.195312 C 51.777344 91.371094 52.078125 90.625 52.363281 89.949219 L 57.160156 78.773438 L 66.75 78.773438 L 60.71875 107.167969 L 54.484375 107.167969 L 58.152344 92.179688 C 58.203125 91.945312 58.441406 90.996094 58.863281 89.339844 C 59.292969 87.679688 59.667969 86.199219 59.996094 84.894531 L 59.6875 84.894531 L 50.335938 107.167969 L 45.445312 107.167969 L 45.484375 84.894531 L 45.261719 84.894531 C 45.132812 85.902344 45.003906 86.777344 44.890625 87.519531 C 44.785156 88.261719 44.664062 88.9375 44.546875 89.539062 L 41.261719 107.167969 Z M 35.066406 107.167969 "/>
<path fill-rule="nonzero" fill="rgba(255,255,255,0.18)" fill-opacity="1" d="M 18.089844 107.167969 L 24.140625 78.773438 L 30.816406 78.773438 L 25.984375 101.582031 L 34.78125 101.582031 L 33.617188 107.167969 Z M 33.777344 107.167969 L 39.828125 78.773438 L 48.914062 78.773438 L 48.808594 95.054688 L 49.125 95.054688 C 49.5 93.972656 49.851562 93.019531 50.175781 92.195312 C 50.488281 91.371094 50.792969 90.625 51.074219 89.949219 L 55.871094 78.773438 L 65.460938 78.773438 L 59.433594 107.167969 L 53.195312 107.167969 L 56.863281 92.179688 C 56.914062 91.945312 57.152344 90.996094 57.574219 89.339844 C 58.003906 87.679688 58.382812 86.199219 58.707031 84.894531 L 58.398438 84.894531 L 49.046875 107.167969 L 44.15625 107.167969 L 44.195312 84.894531 L 43.972656 84.894531 C 43.84375 85.902344 43.714844 86.777344 43.601562 87.519531 C 43.496094 88.261719 43.375 88.9375 43.257812 89.539062 L 39.972656 107.167969 Z M 33.777344 107.167969 "/>
<path fill-rule="nonzero" fill="#FFFFFF" fill-opacity="1" d="M 16.238281 107.167969 L 22.285156 78.773438 L 28.964844 78.773438 L 24.128906 101.582031 L 32.929688 101.582031 L 31.765625 107.167969 Z M 31.925781 107.167969 L 37.972656 78.773438 L 47.0625 78.773438 L 46.957031 95.054688 L 47.269531 95.054688 C 47.648438 93.972656 48 93.019531 48.320312 92.195312 C 48.636719 91.371094 48.9375 90.625 49.222656 89.949219 L 54.015625 78.773438 L 63.609375 78.773438 L 57.578125 107.167969 L 51.34375 107.167969 L 55.011719 92.179688 C 55.0625 91.945312 55.300781 90.996094 55.722656 89.339844 C 56.152344 87.679688 56.527344 86.199219 56.855469 84.894531 L 56.546875 84.894531 L 47.195312 107.167969 L 42.304688 107.167969 L 42.34375 84.894531 L 42.121094 84.894531 C 41.988281 85.902344 41.863281 86.777344 41.75 87.519531 C 41.644531 88.261719 41.523438 88.9375 41.40625 89.539062 L 38.117188 107.167969 Z M 31.925781 107.167969 "/>
<path fill-rule="nonzero" fill="rgb(89.804077%, 18.823242%, 7.450867%)" fill-opacity="1" d="M 65.566406 107.167969 L 72.550781 84.359375 L 67 84.359375 L 68.722656 78.773438 L 86.253906 78.773438 L 84.550781 84.359375 L 79.257812 84.359375 L 72.273438 107.167969 Z M 91.550781 78.773438 L 98.191406 78.773438 L 92.558594 97.238281 C 92.234375 98.269531 91.996094 99.082031 91.839844 99.679688 C 91.675781 100.277344 91.582031 100.726562 91.554688 101.019531 C 91.503906 101.574219 91.625 102 91.921875 102.316406 C 92.214844 102.632812 92.648438 102.789062 93.214844 102.789062 C 94.6875 102.789062 95.984375 100.964844 97.101562 97.3125 L 97.238281 96.867188 L 102.796875 78.773438 L 109.4375 78.773438 L 103.707031 97.476562 C 103 99.800781 102.398438 101.480469 101.917969 102.523438 C 101.429688 103.570312 100.910156 104.386719 100.363281 104.972656 C 99.449219 105.953125 98.410156 106.683594 97.246094 107.148438 C 96.082031 107.617188 94.738281 107.847656 93.214844 107.847656 C 90.273438 107.847656 88.132812 107.28125 86.789062 106.15625 C 85.445312 105.023438 84.882812 103.3125 85.097656 101.015625 C 85.152344 100.433594 85.308594 99.628906 85.566406 98.589844 C 85.828125 97.550781 86.195312 96.242188 86.671875 94.667969 Z M 115.75 102.335938 L 117.445312 102.335938 C 118.722656 102.335938 119.753906 101.914062 120.546875 101.066406 C 121.332031 100.214844 121.796875 99.019531 121.941406 97.46875 C 122.027344 96.582031 121.871094 95.898438 121.484375 95.40625 C 121.09375 94.914062 120.5 94.667969 119.714844 94.667969 L 118.097656 94.667969 Z M 107.699219 107.167969 L 116.425781 78.773438 L 122.414062 78.773438 C 126.054688 78.773438 128.546875 79.226562 129.910156 80.125 C 131.265625 81.03125 131.84375 82.566406 131.640625 84.730469 C 131.441406 86.820312 130.847656 88.539062 129.859375 89.894531 C 128.859375 91.246094 127.484375 92.214844 125.738281 92.789062 C 126.777344 93.261719 127.515625 93.910156 127.960938 94.730469 C 128.398438 95.5625 128.558594 96.601562 128.441406 97.839844 C 128.144531 101 127.109375 103.34375 125.335938 104.871094 C 123.5625 106.402344 120.992188 107.167969 117.636719 107.167969 Z M 119.496094 90.175781 L 121.007812 90.175781 C 122.183594 90.175781 123.140625 89.785156 123.867188 89.011719 C 124.601562 88.238281 125.03125 87.148438 125.160156 85.757812 C 125.238281 84.945312 125.09375 84.328125 124.738281 83.902344 C 124.382812 83.480469 123.835938 83.265625 123.097656 83.265625 L 121.621094 83.265625 Z M 143.742188 89.226562 L 141.453125 96.675781 C 141.125 97.710938 140.875 98.558594 140.699219 99.226562 C 140.527344 99.886719 140.425781 100.386719 140.394531 100.71875 C 140.335938 101.308594 140.46875 101.78125 140.78125 102.140625 C 141.101562 102.5 141.550781 102.675781 142.128906 102.675781 C 142.984375 102.675781 143.675781 102.347656 144.195312 101.6875 C 144.726562 101.03125 145.394531 99.359375 146.210938 96.675781 L 148.496094 89.261719 C 148.828125 88.230469 149.078125 87.382812 149.253906 86.714844 C 149.421875 86.054688 149.527344 85.558594 149.558594 85.222656 C 149.613281 84.632812 149.476562 84.160156 149.148438 83.800781 C 148.820312 83.441406 148.355469 83.265625 147.773438 83.265625 C 146.921875 83.265625 146.246094 83.582031 145.738281 84.214844 C 145.230469 84.851562 144.5625 86.519531 143.742188 89.226562 Z M 134.03125 100.492188 C 134.085938 99.925781 134.203125 99.21875 134.378906 98.363281 C 134.558594 97.507812 134.792969 96.5625 135.074219 95.53125 C 135.894531 92.4375 136.644531 89.941406 137.332031 88.050781 C 138.019531 86.152344 138.785156 84.460938 139.613281 82.957031 C 140.5 81.339844 141.707031 80.117188 143.210938 79.308594 C 144.722656 78.496094 146.527344 78.09375 148.644531 78.09375 C 151.230469 78.09375 153.140625 78.734375 154.386719 80.011719 C 155.628906 81.289062 156.136719 83.144531 155.90625 85.574219 C 155.859375 86.078125 155.746094 86.738281 155.574219 87.550781 C 155.398438 88.363281 155.164062 89.3125 154.878906 90.410156 C 154.109375 93.234375 153.363281 95.664062 152.636719 97.691406 C 151.910156 99.71875 151.1875 101.390625 150.476562 102.707031 C 149.527344 104.449219 148.296875 105.746094 146.800781 106.585938 C 145.300781 107.425781 143.464844 107.847656 141.308594 107.847656 C 138.726562 107.847656 136.808594 107.214844 135.5625 105.949219 C 134.316406 104.683594 133.808594 102.863281 134.03125 100.492188 Z M 157.628906 97.238281 L 163.707031 97.238281 C 163.703125 97.277344 163.699219 97.320312 163.695312 97.371094 C 163.585938 97.992188 163.519531 98.425781 163.496094 98.679688 C 163.363281 100.078125 163.488281 101.109375 163.867188 101.761719 C 164.246094 102.425781 164.90625 102.75 165.839844 102.75 C 166.574219 102.75 167.183594 102.492188 167.667969 101.984375 C 168.148438 101.472656 168.433594 100.773438 168.519531 99.894531 C 168.652344 98.476562 167.785156 96.890625 165.933594 95.136719 C 165.449219 94.664062 165.066406 94.296875 164.804688 94.027344 C 163.523438 92.726562 162.617188 91.449219 162.09375 90.1875 C 161.5625 88.9375 161.367188 87.597656 161.503906 86.167969 C 161.75 83.5625 162.699219 81.558594 164.347656 80.15625 C 165.996094 78.753906 168.234375 78.054688 171.074219 78.054688 C 173.652344 78.054688 175.550781 78.710938 176.765625 80.019531 C 177.984375 81.328125 178.46875 83.253906 178.230469 85.796875 C 178.1875 86.242188 178.148438 86.582031 178.113281 86.820312 C 178.078125 87.0625 178.03125 87.289062 177.976562 87.496094 L 172.292969 87.496094 L 172.339844 86.996094 C 172.476562 85.523438 172.386719 84.46875 172.078125 83.839844 C 171.757812 83.203125 171.160156 82.886719 170.273438 82.886719 C 169.585938 82.886719 169.03125 83.109375 168.597656 83.542969 C 168.171875 83.976562 167.921875 84.582031 167.851562 85.34375 C 167.777344 86.105469 167.914062 86.808594 168.25 87.464844 C 168.582031 88.113281 169.367188 89.019531 170.597656 90.167969 C 170.644531 90.21875 170.714844 90.289062 170.800781 90.371094 C 173.804688 93.261719 175.175781 96.15625 174.902344 99.058594 C 174.632812 101.921875 173.660156 104.089844 171.992188 105.582031 C 170.320312 107.070312 167.992188 107.8125 165 107.8125 C 162.1875 107.8125 160.144531 107.0625 158.882812 105.570312 C 157.613281 104.078125 157.117188 101.84375 157.398438 98.859375 C 157.429688 98.527344 157.496094 98.03125 157.597656 97.371094 Z M 157.628906 97.238281 "/>
<path fill-rule="nonzero" fill="rgba(255,255,255,0.18)" fill-opacity="1" d="M 13.738281 113.996094 L 183.734375 113.996094 L 183.734375 111.027344 L 13.738281 111.027344 Z M 13.738281 113.996094 "/>
</svg>
